<?xml version="1.0" encoding="utf-8"?>
<!-- Generator: Adobe Illustrator 19.1.1, SVG Export Plug-In . SVG Version: 6.00 Build 0)  -->
<svg version="1.2" baseProfile="tiny" id="Слой_1"
     xmlns="http://www.w3.org/2000/svg" xmlns:xlink="http://www.w3.org/1999/xlink" x="0px" y="0px" viewBox="0 0 100 70"
     xml:space="preserve">
<polygon fill="#DEEBF0"
         points="10.7,49.4 13.8,55.8 20.5,56.9 15.6,61.9 16.8,69 10.7,65.7 4.7,69 5.8,61.9 0.9,56.9 7.7,55.8 "/>
    <polygon fill="#DEEBF0" points="30.3,49.4 33.4,55.8 40.1,56.9 35.2,61.9 36.4,69 30.3,65.7 24.3,69 25.4,61.9 20.5,56.9 27.3,55.8
	"/>
    <polygon fill="#DEEBF0"
             points="49.9,49.4 53,55.8 59.7,56.9 54.8,61.9 56,69 49.9,65.7 43.9,69 45,61.9 40.1,56.9 46.9,55.8 "/>
    <polygon fill="#DEEBF0" points="69.6,49.4 72.6,55.8 79.4,56.9 74.5,61.9 75.6,69 69.6,65.7 63.5,69 64.7,61.9 59.7,56.9 66.5,55.8
	"/>
    <polygon fill="#DEEBF0" points="89.2,49.4 92.2,55.8 99,56.9 94.1,61.9 95.2,69 89.2,65.7 83.1,69 84.3,61.9 79.4,56.9 86.1,55.8
	"/>
    <linearGradient id="SVGID_1_" gradientUnits="userSpaceOnUse" x1="3.7256" y1="5.6816" x2="17.7183" y2="19.6743">
	<stop offset="0" style="stop-color:#F5CD5D"/>
        <stop offset="1" style="stop-color:#E18C44"/>
</linearGradient>
    <polygon fill="url(#SVGID_1_)" points="10.7,1 13.8,7.5 20.5,8.5 15.6,13.5 16.8,20.6 10.7,17.3 4.7,20.6 5.8,13.5 0.9,8.5 7.7,7.5
	"/>
    <linearGradient id="SVGID_2_" gradientUnits="userSpaceOnUse" x1="23.3363" y1="5.6816" x2="37.329" y2="19.6743">
	<stop offset="0" style="stop-color:#F5CD5D"/>
        <stop offset="1" style="stop-color:#E18C44"/>
</linearGradient>
    <polygon fill="url(#SVGID_2_)" points="30.3,1 33.4,7.5 40.1,8.5 35.2,13.5 36.4,20.6 30.3,17.3 24.3,20.6 25.4,13.5 20.5,8.5
	27.3,7.5 "/>
    <linearGradient id="SVGID_3_" gradientUnits="userSpaceOnUse" x1="42.947" y1="5.6816" x2="56.9397" y2="19.6743">
	<stop offset="0" style="stop-color:#F5CD5D"/>
        <stop offset="1" style="stop-color:#E18C44"/>
</linearGradient>
    <polygon fill="url(#SVGID_3_)" points="49.9,1 53,7.5 59.7,8.5 54.8,13.5 56,20.6 49.9,17.3 43.9,20.6 45,13.5 40.1,8.5 46.9,7.5
	"/>
    <linearGradient id="SVGID_4_" gradientUnits="userSpaceOnUse" x1="62.5576" y1="5.6816" x2="76.5503" y2="19.6743">
	<stop offset="0" style="stop-color:#F5CD5D"/>
        <stop offset="1" style="stop-color:#E18C44"/>
</linearGradient>
    <polygon fill="url(#SVGID_4_)" points="69.6,1 72.6,7.5 79.4,8.5 74.5,13.5 75.6,20.6 69.6,17.3 63.5,20.6 64.7,13.5 59.7,8.5
	66.5,7.5 "/>
    <linearGradient id="SVGID_5_" gradientUnits="userSpaceOnUse" x1="82.1683" y1="5.6816" x2="96.161" y2="19.6743">
	<stop offset="0" style="stop-color:#F5CD5D"/>
        <stop offset="1" style="stop-color:#E18C44"/>
</linearGradient>
    <polygon fill="url(#SVGID_5_)" points="89.2,1 92.2,7.5 99,8.5 94.1,13.5 95.2,20.6 89.2,17.3 83.1,20.6 84.3,13.5 79.4,8.5
	86.1,7.5 "/>
</svg>
